<svg width="45" height="45" viewBox="0 0 45 45" fill="none" xmlns="http://www.w3.org/2000/svg">
<g clip-path="url(#clip0_5_176)">
<path d="M34.2083 19.3996H10.0548V43.7418H34.2083V19.3996Z" fill="#FEE187"/>
<path d="M16.0617 37.1166C15.3669 37.1166 14.8037 36.5534 14.8037 35.8587V27.8075C14.8037 27.1129 15.3669 26.5496 16.0617 26.5496C16.7565 26.5496 17.3197 27.1129 17.3197 27.8075V35.8587C17.3198 36.5533 16.7566 37.1166 16.0617 37.1166Z" fill="#EA7C18"/>
<path d="M22.1315 37.1166C21.4367 37.1166 20.8735 36.5534 20.8735 35.8587V27.8075C20.8735 27.1129 21.4367 26.5496 22.1315 26.5496C22.8263 26.5496 23.3895 27.1129 23.3895 27.8075V35.8587C23.3895 36.5533 22.8263 37.1166 22.1315 37.1166Z" fill="#EA7C18"/>
<path d="M28.2013 37.1166C27.5066 37.1166 26.9434 36.5534 26.9434 35.8587V27.8075C26.9434 27.1129 27.5066 26.5496 28.2013 26.5496C28.8961 26.5496 29.4593 27.1129 29.4593 27.8075V35.8587C29.4593 36.5533 28.8961 37.1166 28.2013 37.1166Z" fill="#EA7C18"/>
<path d="M38.1947 11.9496C37.4534 10.785 36.303 9.97886 34.9554 9.6796C34.2776 9.52825 33.6052 9.95663 33.4546 10.6349C33.304 11.3132 33.7317 11.985 34.4099 12.1357C35.1015 12.2894 35.6918 12.703 36.0722 13.3007C36.4525 13.8983 36.5775 14.6084 36.4239 15.3L35.7715 18.2372L8.75417 12.2364L9.40658 9.29912C9.72369 7.87151 11.1428 6.96835 12.5708 7.28493L25.3325 10.1193C26.0104 10.2699 26.6826 9.84219 26.8334 9.16403C26.9839 8.48569 26.5562 7.81394 25.8781 7.66321L18.6324 6.05402L19.3642 2.75874L30.1713 5.15885L29.1666 9.68232C29.016 10.3607 29.4437 11.0324 30.1219 11.1831C30.2137 11.2035 30.3054 11.2134 30.3957 11.2134C30.9726 11.2134 31.4924 10.8142 31.6227 10.2279L32.9001 4.47629C32.9724 4.15057 32.9124 3.80947 32.7333 3.52804C32.5542 3.24662 32.2704 3.0479 31.9447 2.97556L18.6816 0.029996C18.0037 -0.120209 17.3314 0.307027 17.1808 0.985279L16.1762 5.50866L13.1163 4.82909C10.3341 4.21069 7.56826 5.97193 6.9503 8.75384L6.02516 12.9191C5.87461 13.5974 6.30228 14.2692 6.98045 14.4199L23.7382 18.1418H10.0549C9.36008 18.1418 8.79688 18.7051 8.79688 19.3998V43.742C8.79688 44.4366 9.36008 44.9999 10.0549 44.9999H34.2081C34.9029 44.9999 35.4661 44.4366 35.4661 43.742V20.7464L36.4542 20.966C36.5444 20.9861 36.6359 20.996 36.7269 20.996C36.9643 20.996 37.1989 20.9288 37.4025 20.7992C37.6839 20.62 37.8826 20.3363 37.9551 20.0106L38.8803 15.8454C39.1795 14.4978 38.9361 13.1143 38.1947 11.9496ZM32.9502 42.484H11.3129V20.6578H32.9502V42.484Z" fill="#EA7C18"/>
</g>
<defs>
<clipPath id="clip0_5_176">
<rect width="45" height="45" fill="white"/>
</clipPath>
</defs>
</svg>
