<?xml version="1.0" encoding="iso-8859-1"?>
<!-- Generator: Adobe Illustrator 19.0.0, SVG Export Plug-In . SVG Version: 6.00 Build 0)  -->
<svg version="1.1" id="Layer_1" xmlns="http://www.w3.org/2000/svg" xmlns:xlink="http://www.w3.org/1999/xlink" x="0px" y="0px"
	 viewBox="0 0 512.114 512.114" style="enable-background:new 0 0 512.114 512.114;" xml:space="preserve">
<g transform="translate(1 1)">
	<path style="fill:#FD9808;" d="M469.624,75.857l-67.972,6.179c-6.179,15.89-22.069,27.366-40.607,27.366
		c-15.89,0-30.014-8.828-37.076-21.186l-223.338,19.421l32.662,368.993l368.993-31.779L469.624,75.857z"/>
	<path style="fill:#FFDD09;" d="M447.555,78.505l-42.372,6.179c-6.179,16.772-22.069,28.248-40.607,28.248
		c-15.89,0-30.014-8.828-37.076-21.186l-222.455,19.421l32.662,368.993l342.51-32.662L447.555,78.505z"/>
	<g>
		<polygon style="fill:#FCC309;" points="100.631,107.636 187.141,100.574 40.603,87.333 7.941,456.326 132.41,467.802 		"/>
		<polygon style="fill:#FCC309;" points="187.141,472.215 376.934,488.988 380.465,455.443 		"/>
	</g>
	<path style="fill:#FD9808;" d="M405.183,65.264c0-24.717-19.421-44.138-44.138-44.138s-44.138,19.421-44.138,44.138
		s19.421,44.138,44.138,44.138S405.183,89.981,405.183,65.264"/>
	<path style="fill:#FCC309;" d="M378.7,65.264c0-24.717-14.124-44.138-30.897-44.138c-16.772,0-30.897,19.421-30.897,44.138
		s14.124,44.138,30.897,44.138C364.576,109.402,378.7,89.981,378.7,65.264"/>
	<path d="M132.41,476.629C131.527,476.629,131.527,476.629,132.41,476.629L7.058,466.036c-4.414,0-8.828-4.414-7.945-9.71
		L31.776,86.45c0-2.648,0.883-4.414,3.531-6.179c1.766-1.766,4.414-2.648,6.179-1.766l146.538,13.241
		c4.414,0,7.945,4.414,7.945,8.828c0,4.414-3.531,8.828-7.945,8.828l-77.683,7.062l30.897,351.338c0,2.648-0.883,5.297-2.648,7.062
		C136.824,475.746,134.176,476.629,132.41,476.629z M17.652,448.381l105.048,8.828l-30.897-348.69c0-2.648,0.883-4.414,1.766-6.179
		l0.883-0.883l-45.903-4.414L17.652,448.381z"/>
	<path d="M376.934,497.815L376.934,497.815l-190.676-16.772c-4.414,0-7.945-4.414-7.945-8.828c0-4.414,3.531-8.828,7.945-8.828
		L378.7,446.615c2.648,0,5.297,0.883,7.062,2.648c1.766,1.766,2.648,4.414,2.648,7.062l-2.648,33.545
		C385.762,494.284,382.231,497.815,376.934,497.815z M288.658,472.215l80.331,7.062l0.883-14.124L288.658,472.215z"/>
	<path d="M281.596,153.54c-2.648,0-4.414-0.883-6.179-2.648c-3.531-3.531-3.531-8.828,0-12.359l48.552-48.552
		c3.531-3.531,8.828-3.531,12.359,0c3.531,3.531,3.531,8.828,0,12.359l-48.552,48.552C286.01,152.657,284.245,153.54,281.596,153.54
		z"/>
	<path d="M361.045,118.229c-29.131,0-52.966-23.834-52.966-52.966s23.834-52.966,52.966-52.966s52.966,23.834,52.966,52.966
		S390.176,118.229,361.045,118.229z M361.045,29.953c-19.421,0-35.31,15.89-35.31,35.31s15.89,35.31,35.31,35.31
		s35.31-15.89,35.31-35.31S380.465,29.953,361.045,29.953z"/>
	<path d="M133.293,486.34c-1.766,0-4.414-0.883-5.297-1.766c-1.766-1.766-2.648-3.531-3.531-6.179L91.803,108.519
		c0-4.414,3.531-8.828,7.945-9.71l223.338-19.421c3.531,0,6.179,0.883,7.945,4.414c6.179,10.593,17.655,16.772,30.014,16.772
		c14.124,0,27.366-8.828,32.662-22.069c0.883-3.531,4.414-5.297,7.062-5.297l67.972-6.179c4.414,0,8.828,3.531,9.71,7.945
		l32.662,368.993c0,2.648-0.883,4.414-1.766,6.179c-1.766,1.766-3.531,2.648-6.179,3.531L133.293,486.34L133.293,486.34z
		 M110.341,115.581l30.897,351.338l351.338-30.897L461.679,84.684l-53.848,4.414c-8.828,17.655-26.483,28.248-46.786,28.248
		c-16.772,0-31.779-7.945-41.49-20.303L110.341,115.581z"/>
	<path d="M389.293,216.215c-4.414,0-8.828-3.531-8.828-7.945c0-4.414,3.531-8.828,7.945-9.71l26.483-2.648
		c4.414,0,8.828,3.531,9.71,7.945c0,4.414-3.531,8.828-7.945,9.71L389.293,216.215L389.293,216.215z"/>
	<path d="M292.189,225.043c-4.414,0-7.945-3.531-8.828-7.945c0-4.414,3.531-8.828,7.945-9.71l61.793-5.297
		c4.414-0.883,8.828,3.531,9.71,7.945c0,4.414-3.531,8.828-7.945,9.71L292.189,225.043
		C293.072,225.043,292.189,225.043,292.189,225.043z"/>
	<path d="M178.314,234.753c-4.414,0-7.945-3.531-8.828-7.945c0-4.414,3.531-8.828,7.945-9.71l79.448-7.062
		c5.297-0.883,8.828,3.531,9.71,7.945c0,4.414-3.531,8.828-7.945,9.71L178.314,234.753L178.314,234.753z"/>
	<path d="M358.396,271.829c-4.414,0-7.945-3.531-8.828-7.945c0-4.414,3.531-8.828,7.945-9.71l61.793-5.297
		c4.414-0.883,8.828,3.531,9.71,7.945c0,5.297-3.531,8.828-7.945,9.71L358.396,271.829
		C359.279,271.829,358.396,271.829,358.396,271.829z"/>
	<path d="M244.521,282.422c-4.414,0-7.945-3.531-8.828-7.945c0-4.414,3.531-8.828,7.945-9.71l61.793-5.297
		c4.414,0,8.828,3.531,9.71,7.945c0.883,4.414-3.531,8.828-7.945,9.71L244.521,282.422L244.521,282.422z"/>
	<path d="M182.727,287.719c-4.414,0-7.945-3.531-8.828-7.945c0-4.414,3.531-8.828,7.945-9.71l26.483-2.648
		c5.297-0.883,8.828,3.531,9.71,7.945c0,4.414-3.531,8.828-7.945,9.71L182.727,287.719L182.727,287.719z"/>
	<path d="M406.948,321.264c-4.414,0-8.828-3.531-8.828-7.945c0-4.414,3.531-8.828,7.945-9.71l17.655-1.766
		c4.414-0.883,8.828,3.531,9.71,7.945c0,4.414-3.531,8.828-7.945,9.71L406.948,321.264
		C407.831,321.264,406.948,321.264,406.948,321.264z"/>
	<path d="M284.245,331.857c-4.414,0-7.945-3.531-8.828-7.945c0-4.414,3.531-8.828,7.945-9.71l88.276-7.945
		c4.414-0.883,8.828,3.531,9.71,7.945c0.883,4.414-3.531,8.828-7.945,9.71L284.245,331.857L284.245,331.857z"/>
	<path d="M187.141,340.684c-4.414,0-7.945-3.531-8.828-7.945c0-4.414,3.531-8.828,7.945-9.71l44.138-3.531
		c5.297-0.883,8.828,3.531,9.71,7.945c0,4.414-3.531,8.828-7.945,9.71L187.141,340.684
		C188.024,340.684,187.141,340.684,187.141,340.684z"/>
	<path d="M341.624,380.409c-4.414,0-7.945-3.531-8.828-7.945c0-4.414,3.531-8.828,7.945-9.71l88.276-7.945
		c4.414,0,8.828,3.531,9.71,7.945c0,4.414-3.531,8.828-7.945,9.71L341.624,380.409L341.624,380.409z"/>
	<path d="M253.348,387.471c-4.414,0-7.945-3.531-8.828-7.945c0-4.414,3.531-8.828,7.945-9.71l35.31-2.648
		c4.414-0.883,8.828,3.531,9.71,7.945s-3.531,8.828-7.945,9.71L253.348,387.471C254.231,387.471,253.348,387.471,253.348,387.471z"
		/>
	<path d="M191.555,392.767c-4.414,0-7.945-3.531-8.828-7.945c0-4.414,3.531-8.828,7.945-9.71l26.483-2.648
		c5.297-0.883,8.828,3.531,9.71,7.945c0,4.414-3.531,8.828-7.945,9.71L191.555,392.767
		C192.438,392.767,192.438,392.767,191.555,392.767z"/>
</g>
<g>
</g>
<g>
</g>
<g>
</g>
<g>
</g>
<g>
</g>
<g>
</g>
<g>
</g>
<g>
</g>
<g>
</g>
<g>
</g>
<g>
</g>
<g>
</g>
<g>
</g>
<g>
</g>
<g>
</g>
</svg>
