<svg width="260" height="63" viewBox="0 0 260 63" fill="none" xmlns="http://www.w3.org/2000/svg">
<path d="M36.928 41.92C36.8 41.92 36.672 41.8773 36.544 41.792C36.4587 41.7067 36.4373 41.6427 36.48 41.6C36.7787 41.216 37.0133 40.7893 37.184 40.32C37.3973 39.8933 37.5893 39.4453 37.76 38.976C37.2053 35.9893 36.4587 32.8747 35.52 29.632C34.624 26.3893 33.6427 23.1467 32.576 19.904C31.552 16.6187 30.5707 13.504 29.632 10.56C29.3333 10.7733 29.0133 11.2853 28.672 12.096C28.3733 12.9067 28.16 13.504 28.032 13.888C27.4773 15.3387 26.816 17.0453 26.048 19.008C25.3227 20.928 24.4907 22.9333 23.552 25.024C22.656 27.072 21.632 29.0987 20.48 31.104C19.3707 33.0667 18.1333 34.8587 16.768 36.48C16.128 37.2907 15.2533 38.016 14.144 38.656C13.0347 39.2533 11.8827 39.7227 10.688 40.064C9.49333 40.448 8.40533 40.64 7.424 40.64C6.10133 40.64 4.82133 40.2773 3.584 39.552C2.38933 38.784 1.49333 37.632 0.896 36.096C0.725333 35.5413 0.597333 34.9653 0.512 34.368C0.426667 33.728 0.384 33.1093 0.384 32.512C0.384 31.9147 0.490667 31.616 0.704 31.616C0.917333 31.616 1.024 31.7867 1.024 32.128C1.024 34.1333 1.57867 35.7973 2.688 37.12C3.79733 38.4427 5.12 39.104 6.656 39.104C8.14933 39.104 9.64267 38.7413 11.136 38.016C12.6293 37.2907 13.9733 36.288 15.168 35.008C17.088 32.8747 18.7093 30.6133 20.032 28.224C21.3547 25.8347 22.528 23.36 23.552 20.8C24.576 18.24 25.6213 15.68 26.688 13.12C27.328 11.4987 28.224 10.0907 29.376 8.896C30.528 7.70133 31.872 6.95467 33.408 6.656H29.888C28.3947 6.656 26.816 6.72 25.152 6.848C23.488 6.976 21.9733 7.25333 20.608 7.68C19.2427 8.10667 18.2613 8.74666 17.664 9.6C17.3227 10.112 17.152 10.7307 17.152 11.456C17.152 12.224 17.344 12.9493 17.728 13.632C18.112 14.3147 18.6027 14.8053 19.2 15.104C19.2853 15.1893 19.328 15.232 19.328 15.232C19.328 15.36 19.2213 15.488 19.008 15.616C18.8373 15.7013 18.6453 15.7227 18.432 15.68C18.0907 15.4667 17.664 15.1253 17.152 14.656C16.64 14.144 16.1707 13.6107 15.744 13.056C15.36 12.5013 15.104 12.032 14.976 11.648C14.8053 11.136 14.72 10.624 14.72 10.112C14.72 9.088 15.0827 8.256 15.808 7.616C16.576 6.976 17.5573 6.48533 18.752 6.144C19.9467 5.80267 21.2267 5.568 22.592 5.44C24 5.26933 25.344 5.184 26.624 5.184C27.904 5.14133 29.0133 5.12 29.952 5.12H37.696C37.9093 5.07733 37.9093 5.22667 37.696 5.568C37.5253 5.90933 37.2907 6.25067 36.992 6.592C36.736 6.89066 36.5227 7.04 36.352 7.04C35.9253 6.99733 35.264 7.08266 34.368 7.296C33.5147 7.46666 32.9173 7.68 32.576 7.936C32.704 9.55733 33.0027 11.456 33.472 13.632C33.984 15.808 34.5813 18.112 35.264 20.544C35.9467 22.9333 36.6933 25.344 37.504 27.776C38.3573 30.1653 39.1893 32.4053 40 34.496C40.6827 32.8747 41.4507 30.8907 42.304 28.544C43.1573 26.1973 44.0533 23.7013 44.992 21.056C45.9733 18.4107 46.976 15.8507 48 13.376C49.0667 10.8587 50.112 8.61867 51.136 6.656C52.2027 4.69333 53.248 3.24266 54.272 2.304C54.784 1.83466 55.4027 1.472 56.128 1.216C56.8533 0.917332 57.536 0.767998 58.176 0.767998C58.7733 0.767998 59.2853 0.917332 59.712 1.216C60.1387 1.472 60.3307 1.89867 60.288 2.496L60.224 4.8C60.224 4.84267 60.1173 4.88533 59.904 4.928C59.6907 4.97066 59.6053 4.97066 59.648 4.928C59.6907 4.37333 59.4773 3.98933 59.008 3.776C58.5387 3.52 58.1547 3.392 57.856 3.392C56.96 3.34933 56 3.904 54.976 5.056C53.9947 6.208 52.9707 7.72266 51.904 9.6C50.8373 11.4773 49.792 13.5467 48.768 15.808C47.744 18.0267 46.7627 20.2667 45.824 22.528C44.928 24.7467 44.1173 26.7947 43.392 28.672C42.6667 30.5493 42.0693 32.0213 41.6 33.088C41.1733 33.984 40.96 34.8587 40.96 35.712C40.96 35.84 40.96 35.968 40.96 36.096C40.96 36.224 40.9813 36.352 41.024 36.48C41.024 36.6507 41.0453 36.8427 41.088 37.056C41.1733 37.2693 41.2373 37.4827 41.28 37.696C41.28 37.7387 41.28 37.7813 41.28 37.824C41.3227 37.8667 41.344 37.9307 41.344 38.016C41.344 38.3573 41.1733 38.656 40.832 38.912C40.4053 39.2107 39.936 39.4667 39.424 39.68C39.1253 39.808 38.6987 40.128 38.144 40.64C37.632 41.1947 37.312 41.5787 37.184 41.792C37.0987 41.8773 37.0133 41.92 36.928 41.92ZM49.325 40.128C48.6423 40.128 48.0237 40 47.469 39.744C46.957 39.4453 46.701 38.8267 46.701 37.888C46.701 36.3947 47.085 34.9013 47.853 33.408C48.621 31.872 49.4103 30.528 50.221 29.376C50.9463 28.3947 51.757 27.4773 52.653 26.624C53.5917 25.728 54.5943 24.96 55.661 24.32C56.3437 23.8933 57.261 23.4453 58.413 22.976C59.6077 22.464 60.6103 22.208 61.421 22.208C62.1037 22.208 62.701 22.4 63.213 22.784C63.725 23.1253 63.981 23.7653 63.981 24.704C63.981 26.1547 63.597 27.648 62.829 29.184C62.1037 30.6773 61.3357 32 60.525 33.152C60.141 33.664 59.757 34.1547 59.373 34.624C58.989 35.0507 58.5623 35.4987 58.093 35.968C59.6717 35.968 61.1223 35.52 62.445 34.624C63.7677 33.6853 64.9197 32.5547 65.901 31.232L66.029 31.104C66.157 31.104 66.221 31.232 66.221 31.488C66.221 31.7867 66.1357 32.064 65.965 32.32C65.1117 33.5147 64.045 34.5813 62.765 35.52C61.485 36.416 60.0343 36.864 58.413 36.864C58.2423 36.864 58.0717 36.864 57.901 36.864C57.7303 36.864 57.5597 36.8427 57.389 36.8C54.9997 39.0187 52.3117 40.128 49.325 40.128ZM50.989 39.04C51.5863 39.04 52.2263 38.8267 52.909 38.4C53.6343 37.9733 54.189 37.568 54.573 37.184C55.2983 36.4587 55.9597 35.6907 56.557 34.88C57.1543 34.0267 57.709 33.1733 58.221 32.32C58.8183 31.296 59.4157 30.08 60.013 28.672C60.6103 27.264 60.909 25.9413 60.909 24.704C60.909 23.7227 60.5677 23.232 59.885 23.232C59.3303 23.232 58.6477 23.4667 57.837 23.936C57.069 24.4053 56.493 24.832 56.109 25.216C54.6583 26.7093 53.4423 28.3307 52.461 30.08C51.9063 31.0613 51.309 32.2133 50.669 33.536C50.029 34.8587 49.709 36.0747 49.709 37.184C49.709 37.3547 49.709 37.5253 49.709 37.696C49.7517 37.824 49.7943 37.9733 49.837 38.144C50.0077 38.7413 50.3917 39.04 50.989 39.04ZM67.7985 40.192C67.3718 40.192 67.0092 40.1067 66.7105 39.936C66.4118 39.7653 66.2625 39.4453 66.2625 38.976C66.2625 38.3787 66.4118 37.6747 66.7105 36.864C67.0518 36.0533 67.4145 35.2427 67.7985 34.432C68.1825 33.6213 68.5025 32.96 68.7585 32.448C68.9718 32.064 69.2492 31.4667 69.5905 30.656C69.9745 29.8027 70.3585 28.928 70.7425 28.032C71.1692 27.0933 71.5105 26.304 71.7665 25.664C72.0652 25.024 72.2145 24.704 72.2145 24.704C71.8305 25.1307 71.3185 25.728 70.6785 26.496C70.0812 27.264 69.4198 28.0747 68.6945 28.928C68.0118 29.7387 67.3718 30.5067 66.7745 31.232C66.2198 31.9573 65.8145 32.4907 65.5585 32.832C65.4305 33.0027 65.3238 33.088 65.2385 33.088C65.1532 33.088 65.1105 32.9813 65.1105 32.768C65.1105 32.4267 65.2172 32.1067 65.4305 31.808C65.9425 31.168 66.5612 30.4 67.2865 29.504C68.0118 28.5653 68.7372 27.6267 69.4625 26.688C70.2305 25.7493 70.8918 24.9173 71.4465 24.192C71.1052 24.192 70.6572 24.2133 70.1025 24.256C69.5905 24.2987 69.1212 24.3627 68.6945 24.448C68.2678 24.4907 68.0332 24.512 67.9905 24.512C67.7772 24.512 67.7985 24.3413 68.0545 24C68.3105 23.6587 68.6518 23.3173 69.0785 22.976C69.5052 22.6347 69.8252 22.464 70.0385 22.464C70.0812 22.464 70.4225 22.4853 71.0625 22.528C71.7025 22.528 72.1718 22.528 72.4705 22.528C73.3238 21.376 74.1558 20.0533 74.9665 18.56C75.8198 17.0667 76.6518 15.424 77.4625 13.632C77.8038 13.5893 78.3798 13.3547 79.1905 12.928C80.0438 12.4587 80.7052 11.9893 81.1745 11.52C81.3878 11.3067 81.5585 11.2 81.6865 11.2C81.9425 11.2 81.9425 11.3707 81.6865 11.712C81.3878 12.0533 80.8758 12.7787 80.1505 13.888C79.4252 14.9547 78.6145 16.256 77.7185 17.792C76.8225 19.2853 75.9692 20.864 75.1585 22.528H80.3425C80.8118 22.528 81.0465 22.592 81.0465 22.72C81.0465 22.8907 80.7265 23.0613 80.0865 23.232C79.3612 23.4453 78.5932 23.5733 77.7825 23.616C77.0145 23.6587 76.2892 23.744 75.6065 23.872C74.9665 24 74.4972 24.2773 74.1985 24.704C73.9425 25.0027 73.5798 25.6427 73.1105 26.624C72.6412 27.6053 72.1292 28.736 71.5745 30.016C71.0625 31.2533 70.6145 32.512 70.2305 33.792C69.8465 35.0293 69.6118 36.0747 69.5265 36.928V37.184C69.5265 37.5253 69.6332 37.8027 69.8465 38.016C70.0598 38.2293 70.2732 38.336 70.4865 38.336C71.0412 38.336 71.7452 37.9947 72.5985 37.312C73.4945 36.6293 74.4118 35.8187 75.3505 34.88C76.2892 33.8987 77.0998 33.0027 77.7825 32.192C78.0812 31.8507 78.3372 31.5307 78.5505 31.232C78.8065 30.9333 78.9558 30.7413 78.9985 30.656C79.0838 30.8267 79.1265 30.9547 79.1265 31.04C79.1265 31.296 79.0412 31.5733 78.8705 31.872C78.7425 32.1707 78.5932 32.4267 78.4225 32.64C77.6118 33.7067 76.6305 34.8373 75.4785 36.032C74.3265 37.184 73.0892 38.1653 71.7665 38.976C70.4865 39.7867 69.1638 40.192 67.7985 40.192ZM81.574 40.512C79.8247 40.512 78.6087 40.1707 77.926 39.488C77.2433 38.8053 76.902 37.9733 76.902 36.992C76.902 35.7547 77.222 34.432 77.862 33.024C78.5447 31.616 79.1847 30.4213 79.782 29.44C80.4647 28.416 81.382 27.3493 82.534 26.24C83.686 25.1307 84.9447 24.192 86.31 23.424C87.6753 22.656 88.998 22.272 90.278 22.272C91.3873 22.272 92.1553 22.5493 92.582 23.104C93.0087 23.616 93.222 24.2347 93.222 24.96C93.222 26.2827 92.8167 27.3707 92.006 28.224C91.238 29.0773 90.278 29.7813 89.126 30.336C87.974 30.848 86.8647 31.2747 85.798 31.616C85.158 31.7867 84.4113 31.9573 83.558 32.128C82.7047 32.2987 81.894 32.384 81.126 32.384C80.8273 33.152 80.5927 33.8987 80.422 34.624C80.2513 35.3493 80.166 36.0107 80.166 36.608C80.166 37.3333 80.3367 37.9307 80.678 38.4C81.062 38.8693 81.6807 39.104 82.534 39.104C82.8753 39.104 83.2807 39.0613 83.75 38.976C84.2193 38.8907 84.7313 38.7627 85.286 38.592C86.566 38.1653 87.8247 37.4827 89.062 36.544C90.2993 35.6053 91.43 34.6027 92.454 33.536C93.5207 32.4267 94.3313 31.5093 94.886 30.784C95.014 30.912 95.078 31.0613 95.078 31.232C95.078 31.4453 94.9287 31.7867 94.63 32.256C93.7767 33.4507 92.6673 34.688 91.302 35.968C89.9367 37.248 88.422 38.336 86.758 39.232C85.094 40.0853 83.366 40.512 81.574 40.512ZM81.638 31.104C82.1927 31.1467 82.8113 31.1467 83.494 31.104C84.2193 31.0187 84.9233 30.8693 85.606 30.656C87.3553 30.144 88.614 29.3333 89.382 28.224C90.1927 27.072 90.598 26.048 90.598 25.152C90.598 24.64 90.4913 24.2133 90.278 23.872C90.0647 23.5307 89.7233 23.36 89.254 23.36C88.0167 23.36 86.9073 23.8293 85.926 24.768C84.9447 25.664 84.0913 26.7093 83.366 27.904C82.6407 29.0987 82.0647 30.1653 81.638 31.104ZM98.084 62.4C96.4627 62.4 94.9053 62.016 93.412 61.248C91.876 60.5227 90.7453 59.392 90.02 57.856C89.764 57.3013 89.5933 56.704 89.508 56.064C89.4227 55.4667 89.38 54.8693 89.38 54.272V53.568C89.38 53.2267 89.4227 52.9067 89.508 52.608C89.5933 52.352 89.8067 52.224 90.148 52.224C90.2333 52.224 90.276 52.2667 90.276 52.352C90.276 52.608 90.2547 52.864 90.212 53.12C90.1693 53.376 90.148 53.6533 90.148 53.952C90.148 55.9147 90.788 57.408 92.068 58.432C93.3053 59.456 94.8627 59.968 96.74 59.968C97.508 59.968 98.2973 59.8827 99.108 59.712C99.9187 59.5413 100.687 59.3067 101.412 59.008C104.1 57.856 106.425 56.2133 108.388 54.08C110.393 51.9893 112.143 49.6213 113.636 46.976C115.129 44.3307 116.473 41.6427 117.668 38.912C118.351 37.2907 118.948 35.712 119.46 34.176C120.015 32.64 120.505 31.2533 120.932 30.016C120.505 30.6133 119.951 31.3387 119.268 32.192C118.585 33.0453 117.903 33.8773 117.22 34.688C116.537 35.456 115.94 36.0747 115.428 36.544C114.361 37.568 113.209 38.4427 111.972 39.168C110.777 39.8507 109.54 40.192 108.26 40.192C107.833 40.192 107.471 40.1067 107.172 39.936C106.873 39.7653 106.724 39.4453 106.724 38.976C106.724 38.3787 106.873 37.6747 107.172 36.864C107.513 36.0533 107.876 35.2427 108.26 34.432C108.644 33.6213 108.964 32.96 109.22 32.448C109.732 31.4667 110.223 30.4853 110.692 29.504C111.161 28.5227 111.567 27.6907 111.908 27.008C112.249 26.368 112.42 25.9413 112.42 25.728C112.42 25.3867 112.164 25.3867 111.652 25.728C111.183 26.0693 110.735 26.4107 110.308 26.752C109.369 27.648 108.388 28.7147 107.364 29.952C106.34 31.1467 105.551 32.1067 104.996 32.832C104.868 33.0027 104.761 33.088 104.676 33.088C104.591 33.088 104.548 32.9813 104.548 32.768C104.548 32.4267 104.655 32.1067 104.868 31.808C105.465 30.9547 106.169 30.016 106.98 28.992C107.791 27.968 108.623 26.9867 109.476 26.048C110.287 25.1947 111.119 24.3627 111.972 23.552C112.825 22.7413 113.913 22.336 115.236 22.336C116.132 22.336 116.58 22.6773 116.58 23.36C116.58 23.9573 116.324 24.64 115.812 25.408C115.513 25.8773 115.044 26.6667 114.404 27.776C113.764 28.8853 113.103 30.1013 112.42 31.424C111.78 32.704 111.225 33.8987 110.756 35.008C110.287 36.1173 110.052 36.928 110.052 37.44C110.052 38.0373 110.351 38.336 110.948 38.336C111.417 38.336 111.993 38.1013 112.676 37.632C113.359 37.12 114.063 36.5227 114.788 35.84C116.025 34.6453 117.156 33.3227 118.18 31.872C119.247 30.4213 120.164 29.0347 120.932 27.712C121.06 27.4987 121.273 27.1147 121.572 26.56C121.913 26.0053 122.255 25.472 122.596 24.96C122.98 24.448 123.279 24.1493 123.492 24.064C123.705 23.9787 124.132 23.744 124.772 23.36C125.412 22.976 126.052 22.72 126.692 22.592C127.289 22.464 127.737 22.4 128.036 22.4C128.505 22.4 128.74 22.528 128.74 22.784C128.74 23.1253 128.548 23.296 128.164 23.296C127.695 23.296 127.268 23.424 126.884 23.68C126.5 23.8933 126.201 24.1707 125.988 24.512C125.604 25.0667 125.049 26.0693 124.324 27.52C123.641 28.9707 122.873 30.656 122.02 32.576C121.209 34.4533 120.399 36.3733 119.588 38.336C118.777 40.256 118.031 42.0267 117.348 43.648C116.324 46.08 115.151 48.448 113.828 50.752C112.505 53.0987 110.948 55.1893 109.156 57.024C107.407 58.9013 105.316 60.3733 102.884 61.44C101.433 62.08 99.8333 62.4 98.084 62.4ZM127.7 40.128C127.017 40.128 126.399 40 125.844 39.744C125.332 39.4453 125.076 38.8267 125.076 37.888C125.076 36.3947 125.46 34.9013 126.228 33.408C126.996 31.872 127.785 30.528 128.596 29.376C129.321 28.3947 130.132 27.4773 131.028 26.624C131.967 25.728 132.969 24.96 134.036 24.32C134.719 23.8933 135.636 23.4453 136.788 22.976C137.983 22.464 138.985 22.208 139.796 22.208C140.479 22.208 141.076 22.4 141.588 22.784C142.1 23.1253 142.356 23.7653 142.356 24.704C142.356 26.1547 141.972 27.648 141.204 29.184C140.479 30.6773 139.711 32 138.9 33.152C138.516 33.664 138.132 34.1547 137.748 34.624C137.364 35.0507 136.937 35.4987 136.468 35.968C138.047 35.968 139.497 35.52 140.82 34.624C142.143 33.6853 143.295 32.5547 144.276 31.232L144.404 31.104C144.532 31.104 144.596 31.232 144.596 31.488C144.596 31.7867 144.511 32.064 144.34 32.32C143.487 33.5147 142.42 34.5813 141.14 35.52C139.86 36.416 138.409 36.864 136.788 36.864C136.617 36.864 136.447 36.864 136.276 36.864C136.105 36.864 135.935 36.8427 135.764 36.8C133.375 39.0187 130.687 40.128 127.7 40.128ZM129.364 39.04C129.961 39.04 130.601 38.8267 131.284 38.4C132.009 37.9733 132.564 37.568 132.948 37.184C133.673 36.4587 134.335 35.6907 134.932 34.88C135.529 34.0267 136.084 33.1733 136.596 32.32C137.193 31.296 137.791 30.08 138.388 28.672C138.985 27.264 139.284 25.9413 139.284 24.704C139.284 23.7227 138.943 23.232 138.26 23.232C137.705 23.232 137.023 23.4667 136.212 23.936C135.444 24.4053 134.868 24.832 134.484 25.216C133.033 26.7093 131.817 28.3307 130.836 30.08C130.281 31.0613 129.684 32.2133 129.044 33.536C128.404 34.8587 128.084 36.0747 128.084 37.184C128.084 37.3547 128.084 37.5253 128.084 37.696C128.127 37.824 128.169 37.9733 128.212 38.144C128.383 38.7413 128.767 39.04 129.364 39.04ZM147.198 40.192C146.771 40.192 146.408 40.1067 146.11 39.936C145.811 39.7653 145.661 39.4453 145.661 38.976C145.661 38.3787 145.811 37.6747 146.11 36.864C146.451 36.0533 146.814 35.2427 147.198 34.432C147.582 33.6213 147.902 32.96 148.158 32.448C148.67 31.4667 149.16 30.4853 149.63 29.504C150.099 28.5227 150.504 27.6907 150.845 27.008C151.187 26.368 151.358 25.9413 151.358 25.728C151.358 25.3867 151.102 25.3867 150.59 25.728C150.12 26.0693 149.672 26.4107 149.246 26.752C148.307 27.648 147.326 28.7147 146.302 29.952C145.278 31.1467 144.488 32.1067 143.934 32.832C143.806 33.0027 143.699 33.088 143.614 33.088C143.528 33.088 143.486 32.9813 143.486 32.768C143.486 32.4267 143.592 32.1067 143.806 31.808C144.403 30.9547 145.107 30.016 145.918 28.992C146.728 27.968 147.56 26.9867 148.414 26.048C149.224 25.1947 150.056 24.3627 150.91 23.552C151.763 22.7413 152.851 22.336 154.174 22.336C155.07 22.336 155.518 22.6773 155.518 23.36C155.518 23.9573 155.262 24.64 154.75 25.408C154.451 25.8773 153.982 26.6667 153.342 27.776C152.702 28.8853 152.04 30.1013 151.358 31.424C150.718 32.704 150.163 33.8987 149.694 35.008C149.224 36.1173 148.99 36.928 148.99 37.44C148.99 38.0373 149.288 38.336 149.885 38.336C150.355 38.336 150.931 38.1013 151.614 37.632C152.296 37.12 153 36.5227 153.726 35.84C155.048 34.56 156.243 33.1733 157.31 31.68C158.419 30.144 159.358 28.672 160.126 27.264C160.936 25.856 161.576 24.704 162.046 23.808C162.131 23.6373 162.216 23.4453 162.302 23.232C162.43 22.976 162.622 22.8267 162.878 22.784C163.134 22.7413 163.688 22.72 164.542 22.72C165.395 22.72 166.184 22.5493 166.91 22.208H167.038C167.166 22.208 167.23 22.272 167.23 22.4C167.23 22.7413 166.952 22.9973 166.398 23.168C165.886 23.3387 165.288 23.8507 164.606 24.704C163.966 25.5573 163.326 26.6027 162.686 27.84C162.046 29.0347 161.47 30.272 160.958 31.552C160.446 32.832 160.062 34.0053 159.806 35.072C159.55 36.1387 159.486 36.928 159.614 37.44C159.784 38.0373 160.083 38.336 160.51 38.336C161.064 38.336 161.832 37.9947 162.814 37.312C163.838 36.6293 164.883 35.8187 165.95 34.88C167.016 33.8987 167.891 33.0027 168.574 32.192C168.872 31.8507 169.15 31.5093 169.406 31.168C169.662 30.8267 169.832 30.6133 169.918 30.528C169.96 30.5707 170.003 30.656 170.046 30.784C170.088 30.8693 170.11 30.9547 170.11 31.04C170.067 31.3387 169.96 31.6373 169.79 31.936C169.619 32.192 169.427 32.4267 169.214 32.64C168.403 33.7067 167.422 34.8373 166.27 36.032C165.16 37.184 163.944 38.1653 162.622 38.976C161.342 39.7867 160.019 40.192 158.654 40.192C158.227 40.192 157.736 40.0853 157.182 39.872C156.67 39.6587 156.414 39.1893 156.414 38.464C156.414 37.9093 156.563 37.1627 156.862 36.224C157.16 35.2427 157.48 34.2827 157.822 33.344C158.206 32.3627 158.526 31.6373 158.782 31.168C158.227 31.9787 157.544 32.896 156.734 33.92C155.966 34.9013 155.176 35.776 154.366 36.544C153.299 37.568 152.147 38.4427 150.91 39.168C149.715 39.8507 148.478 40.192 147.198 40.192ZM169.123 40.896C168.952 40.896 168.952 40.7253 169.123 40.384C169.336 40 169.528 39.5733 169.699 39.104C169.912 38.6347 170.125 38.1227 170.339 37.568C170.765 36.544 171.235 35.392 171.747 34.112C172.259 32.832 172.749 31.5947 173.219 30.4C173.688 29.1627 174.093 28.1173 174.435 27.264C174.819 26.368 175.075 25.792 175.203 25.536C174.605 26.176 173.88 26.9867 173.027 27.968C172.216 28.9067 171.448 29.824 170.723 30.72C169.997 31.616 169.443 32.32 169.059 32.832C168.931 33.0027 168.824 33.088 168.739 33.088C168.653 33.088 168.611 32.9813 168.611 32.768C168.611 32.4267 168.717 32.1067 168.931 31.808C169.741 30.784 170.637 29.632 171.619 28.352C172.643 27.072 173.56 25.8987 174.371 24.832C175.181 23.7227 175.693 22.9973 175.907 22.656C176.376 22.5707 177.059 22.4427 177.955 22.272C178.893 22.1013 179.533 21.8667 179.875 21.568C180.003 21.44 180.131 21.376 180.259 21.376C180.344 21.376 180.387 21.4613 180.387 21.632C180.429 21.76 180.387 21.9093 180.259 22.08C180.003 22.336 179.619 22.8907 179.107 23.744C178.637 24.5973 178.104 25.5787 177.507 26.688C176.909 27.7973 176.333 28.864 175.779 29.888C176.205 29.248 176.76 28.5013 177.443 27.648C178.168 26.752 178.957 25.8987 179.811 25.088C180.664 24.2347 181.517 23.5307 182.371 22.976C183.267 22.4213 184.099 22.144 184.867 22.144C185.421 22.144 185.891 22.272 186.275 22.528C186.659 22.7413 186.957 23.1467 187.171 23.744C187.299 24.0427 187.363 24.384 187.363 24.768C187.363 25.4933 187.171 26.1973 186.787 26.88C186.445 27.52 186.189 28.0107 186.019 28.352C185.976 28.48 185.827 28.608 185.571 28.736C185.315 28.8213 185.208 28.7787 185.251 28.608C185.293 28.3947 185.315 28.1813 185.315 27.968C185.357 27.7547 185.378 27.52 185.378 27.264C185.378 26.5387 185.229 25.8773 184.931 25.28C184.675 24.6827 184.184 24.384 183.458 24.384C182.776 24.384 181.944 24.8107 180.963 25.664C179.981 26.5173 179 27.4987 178.019 28.608C176.781 30.0587 175.8 31.4453 175.075 32.768C174.349 34.048 173.752 35.3067 173.283 36.544C173.027 37.2267 172.771 37.9093 172.515 38.592C172.259 39.232 172.067 39.744 171.939 40.128C171.384 40.1707 170.829 40.2987 170.275 40.512C169.72 40.768 169.336 40.896 169.123 40.896ZM190.016 41.024C189.248 41.024 188.437 40.9173 187.584 40.704C186.731 40.4907 185.963 40.1493 185.28 39.68C184.64 39.168 184.213 38.4853 184 37.632C183.957 37.504 183.936 37.312 183.936 37.056C183.936 36.4587 184.064 35.7973 184.32 35.072C184.619 34.3467 184.981 33.8347 185.408 33.536C185.579 33.4507 185.707 33.4507 185.792 33.536C185.92 33.6213 185.941 33.7067 185.856 33.792C185.813 33.92 185.749 34.0907 185.664 34.304C185.579 34.4747 185.515 34.6667 185.472 34.88C185.344 35.9893 185.579 36.9707 186.176 37.824C186.432 38.1653 186.731 38.4853 187.072 38.784C187.456 39.0827 187.819 39.3387 188.16 39.552C188.459 39.7227 188.821 39.8507 189.248 39.936C189.675 39.9787 190.101 40 190.528 40C191.211 40 191.872 39.9147 192.512 39.744C193.152 39.5733 193.621 39.296 193.92 38.912C194.475 38.2293 194.752 37.4613 194.752 36.608C194.752 35.968 194.581 35.2853 194.24 34.56C193.899 33.8347 193.365 33.0667 192.64 32.256C192.171 31.744 191.723 31.1893 191.296 30.592C190.869 29.9947 190.592 29.3547 190.464 28.672C190.421 28.544 190.379 28.416 190.336 28.288C190.336 28.16 190.336 28.032 190.336 27.904C189.781 28.7147 189.205 29.4827 188.608 30.208C188.053 30.8907 187.563 31.488 187.136 32C186.965 32.256 186.816 32.384 186.688 32.384C186.603 32.384 186.56 32.2987 186.56 32.128C186.56 31.744 186.731 31.3387 187.072 30.912C187.413 30.528 187.797 30.0587 188.224 29.504C188.651 28.9067 188.992 28.4373 189.248 28.096C189.973 27.0293 190.507 26.1973 190.848 25.6C191.232 24.96 191.637 24.384 192.064 23.872C192.533 23.3173 193.109 22.8693 193.792 22.528C194.517 22.1867 195.264 22.016 196.032 22.016C196.928 22.016 197.739 22.1653 198.464 22.464C199.232 22.72 199.637 23.4027 199.68 24.512C199.68 25.024 199.573 25.5573 199.36 26.112C199.189 26.624 198.997 27.1147 198.784 27.584C198.656 27.84 198.464 28.032 198.208 28.16C197.995 28.2453 197.888 28.2027 197.888 28.032C197.888 27.8613 197.909 27.6693 197.952 27.456C197.995 27.2427 198.016 27.0507 198.016 26.88C198.016 26.1547 197.888 25.5147 197.632 24.96C197.419 24.3627 197.099 23.936 196.672 23.68C196.245 23.3813 195.797 23.232 195.328 23.232C194.645 23.232 193.984 23.5093 193.344 24.064C192.704 24.576 192.384 25.2587 192.384 26.112C192.384 26.1973 192.384 26.304 192.384 26.432C192.384 26.56 192.405 26.6667 192.448 26.752C192.619 27.4347 193.131 28.2027 193.984 29.056C194.837 29.9093 195.499 30.656 195.968 31.296C196.779 32.4053 197.184 33.536 197.184 34.688C197.184 35.84 196.843 36.9067 196.16 37.888C195.52 38.8267 194.645 39.5733 193.536 40.128C192.469 40.7253 191.296 41.024 190.016 41.024ZM204.699 40.512C202.95 40.512 201.734 40.1707 201.051 39.488C200.368 38.8053 200.027 37.9733 200.027 36.992C200.027 35.7547 200.347 34.432 200.987 33.024C201.67 31.616 202.31 30.4213 202.907 29.44C203.59 28.416 204.507 27.3493 205.659 26.24C206.811 25.1307 208.07 24.192 209.435 23.424C210.8 22.656 212.123 22.272 213.403 22.272C214.512 22.272 215.28 22.5493 215.707 23.104C216.134 23.616 216.347 24.2347 216.347 24.96C216.347 26.2827 215.942 27.3707 215.131 28.224C214.363 29.0773 213.403 29.7813 212.251 30.336C211.099 30.848 209.99 31.2747 208.923 31.616C208.283 31.7867 207.536 31.9573 206.683 32.128C205.83 32.2987 205.019 32.384 204.251 32.384C203.952 33.152 203.718 33.8987 203.547 34.624C203.376 35.3493 203.291 36.0107 203.291 36.608C203.291 37.3333 203.462 37.9307 203.803 38.4C204.187 38.8693 204.806 39.104 205.659 39.104C206 39.104 206.406 39.0613 206.875 38.976C207.344 38.8907 207.856 38.7627 208.411 38.592C209.691 38.1653 210.95 37.4827 212.187 36.544C213.424 35.6053 214.555 34.6027 215.579 33.536C216.646 32.4267 217.456 31.5093 218.011 30.784C218.139 30.912 218.203 31.0613 218.203 31.232C218.203 31.4453 218.054 31.7867 217.755 32.256C216.902 33.4507 215.792 34.688 214.427 35.968C213.062 37.248 211.547 38.336 209.883 39.232C208.219 40.0853 206.491 40.512 204.699 40.512ZM204.763 31.104C205.318 31.1467 205.936 31.1467 206.619 31.104C207.344 31.0187 208.048 30.8693 208.731 30.656C210.48 30.144 211.739 29.3333 212.507 28.224C213.318 27.072 213.723 26.048 213.723 25.152C213.723 24.64 213.616 24.2133 213.403 23.872C213.19 23.5307 212.848 23.36 212.379 23.36C211.142 23.36 210.032 23.8293 209.051 24.768C208.07 25.664 207.216 26.7093 206.491 27.904C205.766 29.0987 205.19 30.1653 204.763 31.104ZM221.213 40.128C219.933 40.128 219.058 39.8293 218.589 39.232C218.119 38.592 217.885 37.824 217.885 36.928C217.885 35.7333 218.141 34.4533 218.653 33.088C219.207 31.7227 219.655 30.656 219.997 29.888C219.442 30.4853 218.909 31.0613 218.397 31.616C217.885 32.1707 217.522 32.576 217.309 32.832C217.181 33.0027 217.074 33.088 216.989 33.088C216.903 33.088 216.861 32.9813 216.861 32.768C216.861 32.4267 216.967 32.1067 217.181 31.808C217.778 31.04 218.461 30.2293 219.229 29.376C219.997 28.5227 220.743 27.6267 221.469 26.688C222.322 25.1093 223.261 23.2747 224.285 21.184C225.351 19.0507 226.439 16.8747 227.549 14.656C228.701 12.3947 229.81 10.3253 230.877 8.448C231.986 6.528 232.967 4.992 233.821 3.84C234.546 3.54133 235.229 3.15733 235.869 2.688C236.551 2.21866 237.213 1.792 237.853 1.408C238.535 0.981331 239.239 0.767998 239.965 0.767998C240.434 0.767998 240.775 0.895997 240.989 1.152C241.245 1.408 241.415 1.70667 241.501 2.048C241.543 2.176 241.565 2.41066 241.565 2.752C241.565 3.73333 241.223 4.928 240.541 6.336C239.901 7.744 239.133 9.13066 238.237 10.496C237.383 11.8187 236.637 12.9067 235.997 13.76C234.29 16.1493 232.541 18.3253 230.749 20.288C228.957 22.208 227.335 23.8293 225.885 25.152C224.477 26.432 223.453 27.3707 222.812 27.968C222.514 28.5227 222.151 29.2693 221.725 30.208C221.341 31.104 220.999 32.064 220.701 33.088C220.402 34.0693 220.253 34.9867 220.253 35.84C220.253 36.5653 220.423 37.184 220.765 37.696C221.106 38.1653 221.682 38.4 222.493 38.4C222.621 38.4 222.749 38.4 222.877 38.4C223.005 38.4 223.154 38.3787 223.325 38.336C224.05 38.208 224.839 37.8027 225.693 37.12C226.546 36.4373 227.399 35.648 228.253 34.752C229.106 33.856 229.874 33.0027 230.557 32.192C230.855 31.8507 231.133 31.5307 231.389 31.232C231.645 30.8907 231.815 30.656 231.901 30.528C232.199 30.8267 232.178 31.2107 231.837 31.68C231.538 32.1067 231.282 32.4693 231.069 32.768C230.77 33.152 230.343 33.6853 229.789 34.368C229.234 35.008 228.594 35.712 227.869 36.48C227.058 37.2907 226.055 38.1013 224.861 38.912C223.666 39.7227 222.45 40.128 221.213 40.128ZM223.901 25.408C225.223 24.2987 226.887 22.72 228.893 20.672C230.941 18.5813 232.946 16.064 234.909 13.12C235.122 12.7787 235.463 12.2027 235.933 11.392C236.445 10.5813 236.957 9.664 237.469 8.64C238.023 7.57333 238.493 6.54933 238.877 5.568C239.261 4.544 239.453 3.66933 239.453 2.944C239.453 2.26133 239.261 1.92 238.877 1.92C238.407 1.92 237.789 2.32533 237.021 3.136C236.125 4.07467 235.101 5.46133 233.949 7.296C232.839 9.088 231.666 11.0933 230.429 13.312C229.191 15.5307 227.997 17.7067 226.845 19.84C225.735 21.9733 224.754 23.8293 223.901 25.408ZM215.828 54.464C214.164 54.464 212.777 54.1867 211.668 53.632C210.516 53.12 209.748 52.3307 209.364 51.264C209.321 51.136 209.3 51.008 209.3 50.88C209.257 50.752 209.236 50.6027 209.236 50.432C209.236 49.792 209.385 49.0667 209.684 48.256C209.983 47.488 210.303 46.656 210.644 45.76C210.772 45.504 210.921 45.376 211.092 45.376C211.391 45.376 211.476 45.5893 211.348 46.016C211.049 46.656 210.9 47.3387 210.9 48.064C210.9 49.5573 211.561 50.752 212.884 51.648C214.164 52.5867 215.636 53.056 217.3 53.056C218.58 53.056 219.817 52.7573 221.012 52.16C223.017 51.136 224.66 49.728 225.94 47.936C227.22 46.144 228.351 44.3307 229.332 42.496C230.825 39.6373 232.105 36.6507 233.172 33.536C234.281 30.3787 235.455 27.264 236.692 24.192H235.22C235.007 24.192 234.772 24.2133 234.516 24.256C234.26 24.2987 234.025 24.3413 233.812 24.384L233.684 24.32C233.769 23.8507 234.175 23.4453 234.9 23.104C235.668 22.72 236.265 22.528 236.692 22.528H237.46C238.1 20.992 238.847 19.3067 239.7 17.472C240.596 15.6373 241.556 13.8027 242.58 11.968C243.604 10.0907 244.713 8.384 245.908 6.848C247.145 5.312 248.425 4.096 249.748 3.2C251.924 1.664 254.335 0.896 256.98 0.896C257.492 0.896 257.983 1.06667 258.452 1.408C258.964 1.70667 259.199 2.176 259.156 2.816L258.964 5.12C258.964 5.20533 258.9 5.26933 258.772 5.312C258.644 5.35467 258.559 5.33333 258.516 5.248C258.345 4.39466 257.876 3.776 257.108 3.392C256.383 2.96533 255.529 2.752 254.548 2.752C252.969 2.752 251.519 3.264 250.196 4.288C248.916 5.312 247.529 7.21066 246.036 9.984C245.481 11.0507 244.863 12.3093 244.18 13.76C243.54 15.2107 242.9 16.704 242.26 18.24C241.62 19.776 241.001 21.2053 240.404 22.528H245.012C245.311 22.528 245.609 22.528 245.908 22.528C246.249 22.4853 246.569 22.4427 246.868 22.4C246.868 22.5707 246.74 22.7413 246.484 22.912C246.271 23.04 246.079 23.1467 245.908 23.232C244.841 23.7867 243.839 24.1067 242.9 24.192C241.961 24.2347 240.895 24.2347 239.7 24.192C238.761 26.5387 237.865 28.7787 237.012 30.912C236.201 33.0027 235.305 35.0507 234.324 37.056C233.513 38.848 232.511 40.7467 231.316 42.752C230.121 44.7573 228.756 46.656 227.22 48.448C225.684 50.24 223.977 51.6907 222.1 52.8C220.18 53.9093 218.089 54.464 215.828 54.464Z" fill="#979797"/>
</svg>
