<?xml version="1.0" encoding="iso-8859-1"?>
<!-- Generator: Adobe Illustrator 19.0.0, SVG Export Plug-In . SVG Version: 6.00 Build 0)  -->
<svg version="1.1" id="Layer_1" xmlns="http://www.w3.org/2000/svg" xmlns:xlink="http://www.w3.org/1999/xlink" x="0px" y="0px"
	 viewBox="0 0 512.002 512.002" style="enable-background:new 0 0 512.002 512.002;" xml:space="preserve">
<path style="fill:#FFF48B;" d="M470.145,256.001c0,118.269-95.875,214.144-214.144,214.144S41.858,374.27,41.858,256.001
	S137.734,41.858,256.001,41.858S470.145,137.734,470.145,256.001z"/>
<path style="fill:#EA7C18;" d="M512.001,256.001c0,6.147-4.983,11.13-11.13,11.13h-63.746
	c-2.534,41.671-19.191,79.585-45.24,109.013l63.623,63.623c4.346,4.346,4.346,11.394,0,15.742c-2.174,2.174-5.022,3.26-7.87,3.26
	c-2.848,0-5.698-1.086-7.87-3.26l-63.623-63.623c-29.427,26.049-67.341,42.705-109.013,45.24v63.745
	c0,6.147-4.983,11.13-11.13,11.13s-11.13-4.983-11.13-11.13v-63.746c-41.671-2.534-79.585-19.191-109.013-45.24l-63.623,63.623
	c-2.174,2.174-5.022,3.26-7.87,3.26c-2.848,0-5.698-1.086-7.87-3.26c-4.346-4.346-4.346-11.394,0-15.742l63.623-63.623
	c-26.049-29.427-42.705-67.34-45.238-109.011H11.132c-6.147,0-11.13-4.983-11.13-11.13c0-6.147,4.983-11.13,11.13-11.13h63.746
	c2.534-41.671,19.191-79.585,45.24-109.013L56.496,72.237c-4.346-4.346-4.346-11.394,0-15.742c4.346-4.346,11.394-4.346,15.742,0
	l63.623,63.623c29.426-26.049,67.339-42.705,109.01-45.239V11.132c0-6.147,4.983-11.13,11.13-11.13s11.13,4.983,11.13,11.13v63.746
	c41.671,2.534,79.585,19.191,109.013,45.24l63.623-63.623c4.346-4.346,11.394-4.346,15.742,0c4.346,4.346,4.346,11.394,0,15.742
	l-63.623,63.623c26.049,29.427,42.705,67.341,45.24,109.013h63.745C507.018,244.871,512.001,249.854,512.001,256.001z"/>
<path style="fill:#EDB311;" d="M411.827,256.001c0,86.061-69.766,155.826-155.826,155.826s-155.826-69.766-155.826-155.826
	s69.766-155.826,155.826-155.826S411.827,169.941,411.827,256.001z"/>
<path style="fill:#F7DB4F;" d="M367.306,256.001c0,61.471-49.833,111.304-111.304,111.304s-111.304-49.833-111.304-111.304
	s49.833-111.304,111.304-111.304S367.306,194.53,367.306,256.001z"/>
<path style="fill:#FF4800;" d="M244.871,149.536c0-6.147,4.983-11.13,11.13-11.13c3.917,0,7.868,0.195,11.747,0.58
	c6.117,0.608,10.584,6.059,9.976,12.176c-0.571,5.743-5.41,10.032-11.063,10.032c-0.368,0-0.739-0.019-1.113-0.056
	c-3.151-0.313-6.362-0.472-9.547-0.472C249.854,160.667,244.871,155.684,244.871,149.536z M326.566,161.922
	c-4.915-3.692-11.893-2.7-15.584,2.215c-3.691,4.915-2.7,11.893,2.215,15.584c24.239,18.206,38.141,46.009,38.141,76.28
	c0,52.568-42.766,95.334-95.334,95.334c-6.147,0-11.13,4.983-11.13,11.13c0,6.147,4.983,11.13,11.13,11.13
	c64.843,0,117.595-52.754,117.595-117.595C373.598,218.663,356.454,184.374,326.566,161.922z"/>
<path style="fill:#EDB311;" d="M3.261,19.003c-4.346-4.346-4.346-11.394,0-15.742s11.394-4.346,15.742,0L29.652,13.91
	c4.346,4.346,4.346,11.394,0,15.742c-2.174,2.174-5.022,3.26-7.87,3.26s-5.698-1.086-7.87-3.26L3.261,19.003z M498.094,482.352
	c-4.346-4.346-11.394-4.346-15.742,0c-4.346,4.346-4.346,11.394,0,15.742L493,508.742c2.174,2.174,5.022,3.26,7.87,3.26
	c2.848,0,5.698-1.086,7.87-3.26c4.346-4.346,4.346-11.394,0-15.742L498.094,482.352z M13.91,482.352L3.261,493
	c-4.346,4.346-4.346,11.394,0,15.742c2.174,2.173,5.022,3.259,7.87,3.259s5.698-1.086,7.87-3.26l10.648-10.648
	c4.346-4.346,4.346-11.394,0-15.742C25.304,478.006,18.256,478.006,13.91,482.352z M490.222,32.911c2.848,0,5.698-1.086,7.87-3.26
	l10.648-10.648c4.346-4.346,4.346-11.394,0-15.742c-4.346-4.348-11.394-4.346-15.742,0l-10.648,10.648
	c-4.346,4.346-4.346,11.394,0,15.742C484.526,31.824,487.374,32.911,490.222,32.911z"/>
<g>
</g>
<g>
</g>
<g>
</g>
<g>
</g>
<g>
</g>
<g>
</g>
<g>
</g>
<g>
</g>
<g>
</g>
<g>
</g>
<g>
</g>
<g>
</g>
<g>
</g>
<g>
</g>
<g>
</g>
</svg>
